<svg width="348" height="66" viewBox="0 0 348 66" fill="none" xmlns="http://www.w3.org/2000/svg">
<path d="M1.65137 52V47.7275L5.43555 46.9951V21.4824L1.65137 20.75V16.4531H16.3486V20.75L12.5645 21.4824V46.9951L16.3486 47.7275V52H1.65137Z" fill="white"/>
<path d="M60.8341 14.8029C62.1108 13.3757 63.663 12.2167 65.3989 11.3945C67.1349 10.5722 69.0194 10.1034 70.9411 10.0156C72.8628 9.9279 74.7827 10.223 76.5874 10.8836C78.3922 11.5442 80.0452 12.5569 81.4487 13.8617C82.8523 15.1666 83.9779 16.7372 84.7592 18.4809C85.5405 20.2245 85.9615 22.1057 85.9975 24.0135C86.0334 25.9212 85.6835 27.8167 84.9685 29.5881C84.2534 31.3594 83.1877 32.9707 81.8343 34.3266L60.6773 55.5129C60.5232 55.6673 60.3399 55.7898 60.1379 55.8734C59.9358 55.957 59.7191 56 59.5001 56C59.2812 56 59.0645 55.957 58.8624 55.8734C58.6604 55.7898 58.4771 55.6673 58.323 55.5129L37.166 34.3266C34.6007 31.7563 33.1141 28.3164 33.0063 24.7013C32.8985 21.0862 34.1775 17.5651 36.5852 14.8489C42.3007 8.40235 52.4198 8.38045 58.1662 14.8029L59.5001 16.2925L60.8341 14.8029Z" fill="#FF0808"/>
<path d="M112.488 52V47.7275L116.297 46.9951V39.8174L105.75 21.2383L102.332 20.75V16.4531H116.517V20.75L113.611 21.165L119.52 32.5176L120.057 33.665L120.203 33.6406L120.74 32.5664L127.308 21.165L123.401 20.75V16.4531H137.317V20.75L133.802 21.2383L123.401 39.2559V46.9951L127.21 47.7275V52H112.488ZM155.237 52.5127C152.845 52.5127 150.664 52.0651 148.694 51.1699C146.725 50.2747 145.024 49.0215 143.592 47.4102C142.176 45.7826 141.085 43.8783 140.32 41.6973C139.555 39.5 139.173 37.0993 139.173 34.4951V33.958C139.173 31.3701 139.555 28.9857 140.32 26.8047C141.085 24.6074 142.176 22.695 143.592 21.0674C145.008 19.4398 146.701 18.1784 148.67 17.2832C150.639 16.388 152.82 15.9404 155.213 15.9404C157.622 15.9404 159.819 16.388 161.805 17.2832C163.79 18.1784 165.499 19.4398 166.932 21.0674C168.364 22.695 169.463 24.6074 170.228 26.8047C171.009 28.9857 171.399 31.3701 171.399 33.958V34.4951C171.399 37.0993 171.009 39.5 170.228 41.6973C169.463 43.8783 168.364 45.7826 166.932 47.4102C165.499 49.0215 163.79 50.2747 161.805 51.1699C159.835 52.0651 157.646 52.5127 155.237 52.5127ZM155.237 46.9707C157.256 46.9707 158.932 46.4499 160.267 45.4082C161.601 44.3665 162.602 42.9098 163.27 41.0381C163.953 39.1663 164.295 36.9854 164.295 34.4951V33.9092C164.295 31.4515 163.953 29.2949 163.27 27.4395C162.586 25.5677 161.569 24.111 160.218 23.0693C158.883 22.0277 157.215 21.5068 155.213 21.5068C153.227 21.5068 151.575 22.0277 150.257 23.0693C148.938 24.0947 147.946 25.5352 147.278 27.3906C146.627 29.2461 146.302 31.4189 146.302 33.9092V34.4951C146.302 36.9854 146.627 39.1663 147.278 41.0381C147.946 42.9098 148.938 44.3665 150.257 45.4082C151.591 46.4499 153.252 46.9707 155.237 46.9707ZM191.834 52.5127C189.018 52.5127 186.536 52.0244 184.388 51.0479C182.256 50.0713 180.595 48.6553 179.407 46.7998C178.219 44.9443 177.625 42.6901 177.625 40.0371V21.4824L173.841 20.75V16.4531H188.562V20.75L184.754 21.4824V40.0371C184.754 41.5996 185.039 42.9017 185.608 43.9434C186.178 44.985 186.992 45.7663 188.05 46.2871C189.108 46.7917 190.369 47.0439 191.834 47.0439C193.331 47.0439 194.609 46.7917 195.667 46.2871C196.741 45.7663 197.563 44.985 198.133 43.9434C198.702 42.9017 198.987 41.5996 198.987 40.0371V21.4824L195.203 20.75V16.4531H209.925V20.75L206.116 21.4824V40.0371C206.116 42.6901 205.514 44.9525 204.31 46.8242C203.121 48.6797 201.453 50.0957 199.305 51.0723C197.173 52.0326 194.682 52.5127 191.834 52.5127ZM220.423 52V47.7275L224.231 46.9951V21.9463H217.762L217.371 26.1943H211.976V16.4531H243.689V26.1943H238.27L237.879 21.9463H231.36V46.9951L235.193 47.7275V52H220.423ZM263.758 52.5127C260.942 52.5127 258.46 52.0244 256.312 51.0479C254.179 50.0713 252.519 48.6553 251.331 46.7998C250.143 44.9443 249.549 42.6901 249.549 40.0371V21.4824L245.765 20.75V16.4531H260.486V20.75L256.678 21.4824V40.0371C256.678 41.5996 256.963 42.9017 257.532 43.9434C258.102 44.985 258.916 45.7663 259.974 46.2871C261.032 46.7917 262.293 47.0439 263.758 47.0439C265.255 47.0439 266.533 46.7917 267.591 46.2871C268.665 45.7663 269.487 44.985 270.057 43.9434C270.626 42.9017 270.911 41.5996 270.911 40.0371V21.4824L267.127 20.75V16.4531H281.849V20.75L278.04 21.4824V40.0371C278.04 42.6901 277.438 44.9525 276.233 46.8242C275.045 48.6797 273.377 50.0957 271.229 51.0723C269.096 52.0326 266.606 52.5127 263.758 52.5127ZM284.168 52V47.7275L287.952 46.9951V21.4824L284.168 20.75V16.4531H287.952H299.964C304.147 16.4531 307.41 17.2669 309.754 18.8945C312.098 20.5221 313.27 22.9554 313.27 26.1943C313.27 27.8382 312.83 29.3112 311.951 30.6133C311.089 31.8991 309.827 32.8675 308.167 33.5186C309.583 33.8278 310.763 34.373 311.707 35.1543C312.667 35.9355 313.383 36.8877 313.855 38.0107C314.327 39.1175 314.563 40.3301 314.563 41.6484C314.563 45.0501 313.44 47.6299 311.194 49.3877C308.948 51.1292 305.766 52 301.648 52H284.168ZM295.081 46.5312H301.648C303.536 46.5312 304.977 46.1243 305.97 45.3105C306.963 44.4805 307.459 43.2598 307.459 41.6484C307.459 39.9069 307.036 38.5804 306.189 37.6689C305.343 36.7412 304.008 36.2773 302.186 36.2773H295.081V46.5312ZM295.081 31.3457H300.208C302.112 31.3457 303.577 30.9551 304.603 30.1738C305.628 29.3926 306.141 28.2533 306.141 26.7559C306.141 25.112 305.62 23.8994 304.578 23.1182C303.553 22.3369 302.015 21.9463 299.964 21.9463H295.081V31.3457ZM316.98 52V47.7275L320.765 46.9951V21.4824L316.98 20.75V16.4531H344.568V26.0479H339.1L338.782 21.9463H327.894V30.8818H339.93V36.375H327.894V46.5312H339.368L339.686 42.2832H345.105V52H316.98Z" fill="white"/>
</svg>
