<svg width="32" height="32" viewBox="0 0 32 32" fill="none" xmlns="http://www.w3.org/2000/svg">
<path d="M28.3886 9.73551C28.2425 9.18532 27.9544 8.68316 27.5532 8.27935C27.152 7.87554 26.6517 7.58424 26.1024 7.43462C24.086 6.89062 16.0002 6.89062 16.0002 6.89062C16.0002 6.89062 7.9144 6.89062 5.89796 7.43462C5.3487 7.58424 4.8484 7.87554 4.44716 8.27935C4.04592 8.68316 3.75783 9.18532 3.61173 9.73551C3.07129 11.7648 3.07129 15.9995 3.07129 15.9995C3.07129 15.9995 3.07129 20.2342 3.61173 22.264C3.75783 22.8142 4.04592 23.3163 4.44716 23.7201C4.8484 24.1239 5.3487 24.4152 5.89796 24.5648C7.9144 25.1084 16.0002 25.1084 16.0002 25.1084C16.0002 25.1084 24.086 25.1084 26.1024 24.5648C26.6517 24.4152 27.152 24.1239 27.5532 23.7201C27.9544 23.3163 28.2425 22.8142 28.3886 22.264C28.9291 20.2342 28.9291 15.9995 28.9291 15.9995C28.9291 15.9995 28.9291 11.7648 28.3886 9.73551Z" fill="#EA5A47"/>
<path d="M13.3555 19.8442L20.1137 15.9997L13.3555 12.1553V19.8442Z" fill="white"/>
<path d="M28.3886 9.73551C28.2425 9.18532 27.9544 8.68316 27.5532 8.27935C27.152 7.87554 26.6517 7.58424 26.1024 7.43462C24.086 6.89062 16.0002 6.89062 16.0002 6.89062C16.0002 6.89062 7.9144 6.89062 5.89796 7.43462C5.3487 7.58424 4.8484 7.87554 4.44716 8.27935C4.04592 8.68316 3.75783 9.18532 3.61173 9.73551C3.07129 11.7648 3.07129 15.9995 3.07129 15.9995C3.07129 15.9995 3.07129 20.2342 3.61173 22.264C3.75783 22.8142 4.04592 23.3163 4.44716 23.7201C4.8484 24.1239 5.3487 24.4152 5.89796 24.5648C7.9144 25.1084 16.0002 25.1084 16.0002 25.1084C16.0002 25.1084 24.086 25.1084 26.1024 24.5648C26.6517 24.4152 27.152 24.1239 27.5532 23.7201C27.9544 23.3163 28.2425 22.8142 28.3886 22.264C28.9291 20.2342 28.9291 15.9995 28.9291 15.9995C28.9291 15.9995 28.9291 11.7648 28.3886 9.73551Z" stroke="black" stroke-width="0.5" stroke-miterlimit="10"/>
<path d="M13.3555 19.8442L20.1137 15.9997L13.3555 12.1553V19.8442Z" stroke="black" stroke-width="0.5" stroke-miterlimit="10" stroke-linecap="round" stroke-linejoin="round"/>
</svg>
